<?xml version="1.0" encoding="utf-8"?>
<svg xmlns="http://www.w3.org/2000/svg" xmlns:svg="http://www.w3.org/2000/svg" version="1.2" viewBox="0 0 2125.98 425.197">
	<defs/>
	<title>A short tune, in musical notation.</title>
	<polyline class="StaffLines" fill="none" points="124,173.6 2055.12,173.6" stroke="#000000" stroke-linejoin="bevel" stroke-width="2.73"/>
	<polyline class="StaffLines" fill="none" points="124,198.4 2055.12,198.4" stroke="#000000" stroke-linejoin="bevel" stroke-width="2.73"/>
	<polyline class="StaffLines" fill="none" points="124,223.2 2055.12,223.2" stroke="#000000" stroke-linejoin="bevel" stroke-width="2.73"/>
	<polyline class="StaffLines" fill="none" points="124,248 2055.12,248" stroke="#000000" stroke-linejoin="bevel" stroke-width="2.73"/>
	<polyline class="StaffLines" fill="none" points="124,272.8 2055.12,272.8" stroke="#000000" stroke-linejoin="bevel" stroke-width="2.73"/>
	<path class="SlurSegment" d="m 1382.19,167.896 c 13.12,-41.526 67.26,-68.4344 108.29,-53.816 -37.49,-7.512 -91.64,19.396 -108.29,53.816" fill-rule="evenodd" stroke="#000000" stroke-linecap="round" stroke-linejoin="round" stroke-width="1.24"/>
	<polyline class="BarLine" fill="none" points="2030.07,172.236 2030.07,274.164" stroke="#000000" stroke-linejoin="bevel" stroke-width="4.46"/>
	<polyline class="BarLine" fill="none" points="2048.3,172.236 2048.3,274.164" stroke="#000000" stroke-linejoin="bevel" stroke-width="13.64"/>
	<path class="BarLine" d="m 1298.6368,210.8 c 0,-2.8768 -2.2816,-5.25761 -5.1584,-5.25761 -2.8768,0 -5.1584,2.38081 -5.1584,5.25761 0,2.8768 2.2816,5.25761 5.1584,5.25761 2.8768,0 5.1584,-2.38081 5.1584,-5.25761" style="stroke-width:0.992001"/>
	<path class="BarLine" d="m 1298.6368,235.6 c 0,-2.8768 -2.2816,-5.25761 -5.1584,-5.25761 -2.8768,0 -5.1584,2.38081 -5.1584,5.25761 0,2.8768 2.2816,5.25761 5.1584,5.25761 2.8768,0 5.1584,-2.38081 5.1584,-5.25761" style="stroke-width:0.992001"/>
	<polyline class="BarLine" fill="none" points="1310.03,172.236 1310.03,274.164" stroke="#000000" stroke-linejoin="bevel" stroke-width="4.46"/>
	<polyline class="BarLine" fill="none" points="1328.26,172.236 1328.26,274.164" stroke="#000000" stroke-linejoin="bevel" stroke-width="13.64"/>
	<polyline class="BarLine" fill="none" points="1829.8,172.236 1829.8,274.164" stroke="#000000" stroke-linejoin="bevel" stroke-width="4.46"/>
	<polyline class="BarLine" fill="none" points="837.077,172.236 837.077,274.164" stroke="#000000" stroke-linejoin="bevel" stroke-width="4.46"/>
	<polyline class="BarLine" fill="none" points="1584.88,172.236 1584.88,274.164" stroke="#000000" stroke-linejoin="bevel" stroke-width="4.46"/>
	<polyline class="LedgerLine" fill="none" points="1466.18,148.8 1514.77,148.8" stroke="#000000" stroke-linejoin="bevel" stroke-width="3.97"/>
	<polyline class="LedgerLine" fill="none" points="1609.93,148.8 1658.52,148.8" stroke="#000000" stroke-linejoin="bevel" stroke-width="3.97"/>
	<polyline class="Stem" fill="none" points="1619.35,152.967 1619.35,235.6" stroke="#000000" stroke-linejoin="bevel" stroke-width="2.48"/>
	<polyline class="Stem" fill="none" points="719.272,214.967 719.272,291.505" stroke="#000000" stroke-linejoin="bevel" stroke-width="2.48"/>
	<polyline class="Stem" fill="none" points="648.623,227.367 648.623,297.495" stroke="#000000" stroke-linejoin="bevel" stroke-width="2.48"/>
	<polyline class="Stem" fill="none" points="763.896,202.567 763.896,285.2" stroke="#000000" stroke-linejoin="bevel" stroke-width="2.48"/>
	<polyline class="Stem" fill="none" points="1475.6,140.567 1475.6,223.2" stroke="#000000" stroke-linejoin="bevel" stroke-width="2.48"/>
	<polyline class="Stem" fill="none" points="576.435,202.567 576.435,285.2" stroke="#000000" stroke-linejoin="bevel" stroke-width="2.48"/>
	<polyline class="Stem" fill="none" points="871.549,190.167 871.549,266.6" stroke="#000000" stroke-linejoin="bevel" stroke-width="2.48"/>
	<polyline class="Stem" fill="none" points="1367.32,202.567 1367.32,285.2" stroke="#000000" stroke-linejoin="bevel" stroke-width="2.48"/>
	<polyline class="Stem" fill="none" points="1756.62,202.567 1756.62,285.2" stroke="#000000" stroke-linejoin="bevel" stroke-width="2.48"/>
	<polyline class="Stem" fill="none" points="504.247,202.567 504.247,285.2" stroke="#000000" stroke-linejoin="bevel" stroke-width="2.48"/>
	<polyline class="Stem" fill="none" points="942.198,190.167 942.198,266.6" stroke="#000000" stroke-linejoin="bevel" stroke-width="2.48"/>
	<polyline class="Stem" fill="none" points="1217.37,190.167 1217.37,272.8" stroke="#000000" stroke-linejoin="bevel" stroke-width="2.48"/>
	<polyline class="Stem" fill="none" points="986.822,190.167 986.822,266.705" stroke="#000000" stroke-linejoin="bevel" stroke-width="2.48"/>
	<polyline class="Stem" fill="none" points="1172.74,202.567 1172.74,285.305" stroke="#000000" stroke-linejoin="bevel" stroke-width="2.48"/>
	<polyline class="Stem" fill="none" points="1102.1,214.967 1102.1,291.295" stroke="#000000" stroke-linejoin="bevel" stroke-width="2.48"/>
	<polyline class="Stem" fill="none" points="1057.47,202.567 1057.47,272.695" stroke="#000000" stroke-linejoin="bevel" stroke-width="2.48"/>
	<path class="Note" d="m 1056.23,202.5664 c 0,4.26561 3.0752,9.02721 11.1104,9.02721 10.3168,0 21.1296,-8.43201 21.1296,-17.16161 0,-5.85281 -4.96,-9.12641 -11.1104,-9.12641 -9.6224,0 -21.1296,8.1344 -21.1296,17.26081" style="stroke-width:0.992001"/>
	<path class="Note" d="m 1639.2396,135.70559 c -9.6224,0 -21.1296,8.0352 -21.1296,17.26081 0,4.26561 3.0752,9.02721 11.1104,9.02721 10.3168,0 21.1296,-8.43201 21.1296,-17.16161 0,-5.85281 -4.96,-9.12641 -11.1104,-9.12641 m -2.6784,17.45921 c -0.2976,0.1984 -7.5392,4.16641 -11.0112,4.16641 -3.2736,0 -3.968,-2.6784 -3.968,-3.57121 0,-4.1664 9.92,-9.0272 10.3168,-9.2256 0.3968,-0.1984 7.44,-4.16641 11.0112,-4.16641 2.3808,0 3.968,1.3888 3.968,3.57121 0,4.2656 -10.0192,9.0272 -10.3168,9.2256" style="stroke-width:0.992001"/>
	<path class="Note" d="m 1100.86,214.9664 c 0,4.26561 3.0752,9.02721 11.1104,9.02721 10.3168,0 21.1296,-8.43201 21.1296,-17.16161 0,-5.85281 -4.96,-9.12641 -11.1104,-9.12641 -9.6224,0 -21.1296,8.13441 -21.1296,17.26081" style="stroke-width:0.992001"/>
	<path class="Note" d="m 1881.5804,147.70879 c -13.6896,0 -18.5504,6.944 -18.5504,13.39201 0,6.44801 4.8608,13.39201 18.5504,13.39201 13.6896,0 18.4512,-6.944 18.4512,-13.39201 0,-6.44801 -4.7616,-13.39201 -18.4512,-13.39201 m 5.0592,23.01442 c -1.1904,0.3968 -2.7776,0.5952 -4.2656,0.5952 -2.7776,0 -4.6624,-0.7936 -5.952,-3.2736 -1.2896,-2.48001 -3.0752,-8.82881 -3.1744,-11.50721 -0.1984,-2.67841 0.7936,-4.26561 3.1744,-5.05921 1.1904,-0.3968 2.7776,-0.5952 4.2656,-0.5952 2.7776,0 4.5632,0.5952 5.952,3.2736 1.3888,2.67841 3.1744,9.02721 3.1744,11.50721 0,2.57921 -0.7936,4.36481 -3.1744,5.05921" style="stroke-width:0.992001"/>
	<path class="Note" d="m 985.582,190.1664 c 0,4.26561 3.0752,9.02721 11.11041,9.02721 10.31679,0 21.12959,-8.43201 21.12959,-17.16161 0,-5.85281 -4.96,-9.12641 -11.1104,-9.12641 -9.62239,0 -21.1296,8.1344 -21.1296,17.26081" style="stroke-width:0.992001"/>
	<path class="Note" d="m 1171.5,202.5664 c 0,4.26561 3.0752,9.02721 11.1104,9.02721 10.3168,0 21.1296,-8.43201 21.1296,-17.16161 0,-5.85281 -4.96,-9.12641 -11.1104,-9.12641 -9.6224,0 -21.1296,8.1344 -21.1296,17.26081" style="stroke-width:0.992001"/>
	<path class="Note" d="m 940.958,190.1664 c 0,4.26561 3.0752,9.02721 11.11041,9.02721 10.31681,0 21.12962,-8.43201 21.12962,-17.16161 0,-5.85281 -4.96,-9.12641 -11.11041,-9.12641 -9.62241,0 -21.12962,8.1344 -21.12962,17.26081" style="stroke-width:0.992001"/>
	<path class="Note" d="m 1216.13,190.1664 c 0,4.26561 3.0752,9.02721 11.1104,9.02721 10.3168,0 21.1296,-8.43201 21.1296,-17.16161 0,-5.85281 -4.96,-9.12641 -11.1104,-9.12641 -9.6224,0 -21.1296,8.1344 -21.1296,17.26081" style="stroke-width:0.992001"/>
	<path class="Note" d="m 503.007,202.5664 c 0,4.26561 3.0752,9.02721 11.11041,9.02721 10.31681,0 21.12962,-8.43201 21.12962,-17.16161 0,-5.85281 -4.96,-9.12641 -11.11041,-9.12641 -9.62241,0 -21.12962,8.1344 -21.12962,17.26081" style="stroke-width:0.992001"/>
	<path class="Note" d="m 870.309,190.1664 c 0,4.26561 3.0752,9.02721 11.11041,9.02721 10.31681,0 21.12962,-8.43201 21.12962,-17.16161 0,-5.85281 -4.96,-9.12641 -11.11041,-9.12641 -9.62241,0 -21.12962,8.1344 -21.12962,17.26081" style="stroke-width:0.992001"/>
	<path class="Note" d="m 1387.2096,185.30559 c -9.6224,0 -21.1296,8.0352 -21.1296,17.26081 0,4.26561 3.0752,9.02721 11.1104,9.02721 10.3168,0 21.1296,-8.43201 21.1296,-17.16161 0,-5.85281 -4.96,-9.12641 -11.1104,-9.12641 m -2.6784,17.45921 c -0.2976,0.1984 -7.5392,4.16641 -11.0112,4.16641 -3.2736,0 -3.968,-2.6784 -3.968,-3.57121 0,-4.1664 9.92,-9.0272 10.3168,-9.2256 0.3968,-0.1984 7.44,-4.16641 11.0112,-4.16641 2.3808,0 3.968,1.3888 3.968,3.57121 0,4.2656 -10.0192,9.0272 -10.3168,9.2256" style="stroke-width:0.992001"/>
	<path class="Note" d="m 762.656,202.5664 c 0,4.26561 3.0752,9.02721 11.11041,9.02721 10.31681,0 21.12962,-8.43201 21.12962,-17.16161 0,-5.85281 -4.96,-9.12641 -11.11041,-9.12641 -9.62241,0 -21.12962,8.1344 -21.12962,17.26081" style="stroke-width:0.992001"/>
	<path class="Note" d="m 718.032,214.9664 c 0,4.26561 3.0752,9.02721 11.11041,9.02721 10.31681,0 21.12962,-8.43201 21.12962,-17.16161 0,-5.85281 -4.96,-9.12641 -11.11041,-9.12641 -9.62241,0 -21.12962,8.13441 -21.12962,17.26081" style="stroke-width:0.992001"/>
	<path class="Note" d="m 1495.4896,123.30559 c -9.6224,0 -21.1296,8.0352 -21.1296,17.26081 0,4.26561 3.0752,9.02721 11.1104,9.02721 10.3168,0 21.1296,-8.43201 21.1296,-17.16161 0,-5.85281 -4.96,-9.12641 -11.1104,-9.12641 m -2.6784,17.45921 c -0.2976,0.1984 -7.5392,4.16641 -11.0112,4.16641 -3.2736,0 -3.968,-2.6784 -3.968,-3.57121 0,-4.1664 9.92,-9.0272 10.3168,-9.2256 0.3968,-0.1984 7.44,-4.16641 11.0112,-4.16641 2.3808,0 3.968,1.3888 3.968,3.57121 0,4.2656 -10.0192,9.0272 -10.3168,9.2256" style="stroke-width:0.992001"/>
	<path class="Note" d="m 1755.38,202.5664 c 0,4.26561 3.0752,9.02721 11.1104,9.02721 10.3168,0 21.1296,-8.43201 21.1296,-17.16161 0,-5.85281 -4.96,-9.12641 -11.1104,-9.12641 -9.6224,0 -21.1296,8.1344 -21.1296,17.26081" style="stroke-width:0.992001"/>
	<path class="Note" d="m 647.383,227.3664 c 0,4.26561 3.0752,9.02721 11.11041,9.02721 10.31681,0 21.12962,-8.43201 21.12962,-17.16161 0,-5.85281 -4.96,-9.12641 -11.11041,-9.12641 -9.62241,0 -21.12962,8.1344 -21.12962,17.26081" style="stroke-width:0.992001"/>
	<path class="Note" d="m 575.195,202.5664 c 0,4.26561 3.0752,9.02721 11.11041,9.02721 10.31681,0 21.12962,-8.43201 21.12962,-17.16161 0,-5.85281 -4.96,-9.12641 -11.11041,-9.12641 -9.62241,0 -21.12962,8.1344 -21.12962,17.26081" style="stroke-width:0.992001"/>
	<path class="Clef" d="m 198.35046,250.0832 c 0,7.04321 -2.87681,14.28482 -9.92001,17.16162 -2.08321,-11.90401 -4.76161,-27.67683 -5.45601,-32.04163 8.92801,0 15.37602,6.0512 15.37602,14.88001 m -14.08642,18.35202 c -1.984,0.3968 -3.8688,0.5952 -5.7536,0.5952 -14.18562,0 -26.28803,-9.92001 -26.28803,-24.89922 0,-12.10242 8.53121,-22.91523 17.26082,-30.45443 1.6864,-1.48801 3.2736,-2.87681 4.7616,-4.36481 0.8928,5.35681 1.5872,10.01921 2.2816,14.08642 -9.0272,2.6784 -15.17761,12.20161 -15.17761,21.52642 0,6.944 5.456,16.46721 13.39201,16.46721 0.7936,0 1.6864,-0.3968 1.6864,-1.2896 0,-0.8928 -0.992,-1.3888 -2.1824,-2.1824 -3.8688,-2.3808 -6.0512,-4.96001 -6.0512,-9.82081 0,-6.05121 4.464,-10.91201 10.31681,-12.30081 l 5.7536,32.63683 m -8.72961,-101.9777 c 0.8928,-3.96801 5.45601,-14.38402 10.61441,-14.38402 1.48801,0 3.86881,4.86081 3.86881,11.70562 0,10.31681 -7.63841,18.05441 -14.48322,24.80002 -0.5952,-3.968 -1.0912,-7.83681 -1.0912,-12.00321 0,-3.67041 0.2976,-7.04321 1.0912,-10.11841 m -20.83202,132.43213 c 0,6.54721 5.05921,15.17762 18.45122,15.17762 4.66241,0 8.72961,-1.1904 12.30081,-3.37281 5.35681,-3.7696 6.74561,-10.31681 6.74561,-16.56641 0,-3.86881 -0.5952,-8.33281 -1.5872,-13.98722 -0.2976,-1.984 -0.8928,-4.96 -1.488,-8.82881 9.72161,-3.1744 16.96321,-13.29281 16.96321,-23.51042 0,-14.97922 -10.61441,-25.09763 -25.09762,-25.09763 -0.992,-5.952 -1.984,-11.80481 -2.8768,-17.36001 10.51521,-11.01121 17.75681,-23.41123 17.75681,-39.18404 0,-9.02721 -2.7776,-16.36802 -4.3648,-19.93922 -2.3808,-5.05921 -5.25761,-8.53121 -7.04321,-8.53121 -0.6944,0 -3.7696,1.1904 -7.0432,5.0592 -6.34881,7.53921 -8.13441,20.23682 -8.13441,28.56963 0,5.35681 0.496,10.21761 2.1824,21.32802 -0.0992,0.0992 -5.25761,5.35681 -7.34081,7.04321 -9.02721,8.43201 -21.52642,20.43522 -21.52642,40.27524 0,18.55042 16.16962,33.13284 34.62083,33.13284 2.87681,0 5.55521,-0.29761 7.83681,-0.69441 1.8848,9.52321 2.97601,16.46722 2.97601,21.72483 0,10.31681 -5.25761,15.77281 -15.27682,15.77281 -2.3808,0 -4.464,-0.496 -4.6624,-0.496 -0.0992,-0.0992 -0.2976,-0.1984 -0.2976,-0.2976 0,-0.1984 0.1984,-0.2976 0.496,-0.3968 4.6624,-0.6944 9.32481,-4.6624 9.32481,-11.01121 0,-5.35681 -4.06721,-11.01121 -11.50722,-11.01121 -6.944,0 -11.40801,5.6544 -11.40801,12.20161" style="stroke-width:0.992001"/>
	<path class="KeySig" d="m 244.61222,215.36319 c -0.5952,-3.8688 -2.976,-7.53921 -8.03521,-7.53921 -4.96,0 -7.83681,3.07521 -8.33281,3.67041 l 0.3968,-31.84323 c 0,-0.7936 -0.5952,-1.38881 -1.3888,-1.38881 h -1.1904 c -0.7936,0 -1.3888,0.59521 -1.3888,1.38881 l 0.496,59.61926 c 0,0.7936 0.5952,1.3888 1.3888,1.3888 0.1984,0 0.5952,-0.0992 0.7936,-0.1984 0.3968,-0.1984 6.84481,-3.37281 12.20162,-9.42401 3.7696,-4.26561 5.2576,-9.12641 5.2576,-13.19362 0,-0.8928 -0.0992,-1.6864 -0.1984,-2.48 m -6.84481,3.86881 c 0,1.488 -0.3968,6.0512 -2.8768,9.82081 -1.6864,2.5792 -5.0592,5.2576 -6.94401,6.7456 l 0.2976,-19.34402 c 0.1984,-0.8928 1.68641,-3.7696 5.65441,-3.7696 3.5712,0 3.8688,3.3728 3.8688,5.456 0,0.49601 0,0.79361 0,1.09121" style="stroke-width:0.992001"/>
	<path class="KeySig" d="m 272.18622,178.16319 c -0.5952,-3.8688 -2.976,-7.53921 -8.03521,-7.53921 -4.96,0 -7.83681,3.07521 -8.33281,3.67041 l 0.3968,-31.84323 c 0,-0.7936 -0.5952,-1.38881 -1.3888,-1.38881 h -1.1904 c -0.7936,0 -1.3888,0.59521 -1.3888,1.38881 l 0.496,59.61926 c 0,0.7936 0.5952,1.3888 1.3888,1.3888 0.1984,0 0.5952,-0.0992 0.7936,-0.1984 0.3968,-0.1984 6.84481,-3.37281 12.20162,-9.42401 3.7696,-4.26561 5.2576,-9.12641 5.2576,-13.19362 0,-0.8928 -0.0992,-1.6864 -0.1984,-2.48 m -6.84481,3.86881 c 0,1.488 -0.3968,6.0512 -2.8768,9.82081 -1.6864,2.5792 -5.0592,5.2576 -6.94401,6.7456 l 0.2976,-19.34402 c 0.1984,-0.8928 1.68641,-3.7696 5.65441,-3.7696 3.5712,0 3.8688,3.3728 3.8688,5.456 0,0.49601 0,0.79361 0,1.09121" style="stroke-width:0.992001"/>
	<path class="KeySig" d="m 299.76122,227.76319 c -0.5952,-3.8688 -2.976,-7.53921 -8.03521,-7.53921 -4.96,0 -7.83681,3.07521 -8.33281,3.67041 l 0.3968,-31.84323 c 0,-0.7936 -0.5952,-1.38881 -1.3888,-1.38881 h -1.1904 c -0.7936,0 -1.3888,0.59521 -1.3888,1.38881 l 0.496,59.61926 c 0,0.7936 0.5952,1.3888 1.3888,1.3888 0.1984,0 0.5952,-0.0992 0.7936,-0.1984 0.3968,-0.1984 6.84481,-3.37281 12.20162,-9.42401 3.7696,-4.26561 5.2576,-9.12641 5.2576,-13.19362 0,-0.8928 -0.0992,-1.6864 -0.1984,-2.48 m -6.84481,3.86881 c 0,1.488 -0.3968,6.0512 -2.8768,9.82081 -1.6864,2.5792 -5.0592,5.2576 -6.94401,6.7456 l 0.2976,-19.34402 c 0.1984,-0.8928 1.68641,-3.7696 5.65441,-3.7696 3.5712,0 3.8688,3.3728 3.8688,5.456 0,0.49601 0,0.79361 0,1.09121" style="stroke-width:0.992001"/>
	<path class="KeySig" d="m 327.33522,190.56319 c -0.5952,-3.8688 -2.976,-7.53921 -8.03521,-7.53921 -4.96,0 -7.83681,3.07521 -8.33281,3.67041 l 0.3968,-31.84323 c 0,-0.7936 -0.5952,-1.38881 -1.3888,-1.38881 h -1.1904 c -0.7936,0 -1.3888,0.59521 -1.3888,1.38881 l 0.496,59.61926 c 0,0.7936 0.5952,1.3888 1.3888,1.3888 0.1984,0 0.5952,-0.0992 0.7936,-0.1984 0.3968,-0.1984 6.84481,-3.37281 12.20162,-9.42401 3.7696,-4.26561 5.2576,-9.12641 5.2576,-13.19362 0,-0.8928 -0.0992,-1.6864 -0.1984,-2.48 m -6.84481,3.86881 c 0,1.488 -0.3968,6.0512 -2.8768,9.82081 -1.6864,2.5792 -5.0592,5.2576 -6.94401,6.7456 l 0.2976,-19.34402 c 0.1984,-0.8928 1.68641,-3.7696 5.65441,-3.7696 3.5712,0 3.8688,3.3728 3.8688,5.456 0,0.49601 0,0.79361 0,1.09121" style="stroke-width:0.992001"/>
	<path class="KeySig" d="m 354.91022,240.16319 c -0.5952,-3.8688 -2.976,-7.53921 -8.03521,-7.53921 -4.96,0 -7.83681,3.07521 -8.33281,3.67041 l 0.3968,-31.84323 c 0,-0.7936 -0.5952,-1.38881 -1.3888,-1.38881 h -1.1904 c -0.7936,0 -1.3888,0.59521 -1.3888,1.38881 l 0.496,59.61926 c 0,0.7936 0.5952,1.3888 1.3888,1.3888 0.1984,0 0.5952,-0.0992 0.7936,-0.1984 0.3968,-0.1984 6.84481,-3.37281 12.20162,-9.42401 3.7696,-4.26561 5.2576,-9.12641 5.2576,-13.19362 0,-0.8928 -0.0992,-1.6864 -0.1984,-2.48 m -6.84481,3.86881 c 0,1.488 -0.3968,6.0512 -2.8768,9.82081 -1.6864,2.5792 -5.0592,5.2576 -6.94401,6.7456 l 0.2976,-19.34402 c 0.1984,-0.8928 1.68641,-3.7696 5.65441,-3.7696 3.5712,0 3.8688,3.3728 3.8688,5.456 0,0.49601 0,0.79361 0,1.09121" style="stroke-width:0.992001"/>
	<path class="KeySig" d="m 382.48422,202.96319 c -0.5952,-3.8688 -2.976,-7.53921 -8.03521,-7.53921 -4.96,0 -7.83681,3.07521 -8.33281,3.67041 l 0.3968,-31.84323 c 0,-0.7936 -0.5952,-1.38881 -1.3888,-1.38881 h -1.1904 c -0.7936,0 -1.3888,0.59521 -1.3888,1.38881 l 0.496,59.61926 c 0,0.7936 0.5952,1.3888 1.3888,1.3888 0.1984,0 0.5952,-0.0992 0.7936,-0.1984 0.3968,-0.1984 6.84481,-3.37281 12.20162,-9.42401 3.7696,-4.26561 5.2576,-9.12641 5.2576,-13.19362 0,-0.8928 -0.0992,-1.6864 -0.1984,-2.48 m -6.84481,3.86881 c 0,1.488 -0.3968,6.0512 -2.8768,9.82081 -1.6864,2.5792 -5.0592,5.2576 -6.94401,6.7456 l 0.2976,-19.34402 c 0.1984,-0.8928 1.68641,-3.7696 5.65441,-3.7696 3.5712,0 3.8688,3.3728 3.8688,5.456 0,0.49601 0,0.79361 0,1.09121" style="stroke-width:0.992001"/>
	<path class="TimeSig" d="m 439.72003,205.44318 c -2.48,1.5872 -4.2656,4.46401 -4.2656,7.63841 0,0.3968 0,0.7936 0.0992,1.1904 0.496,4.06721 3.7696,7.24161 7.83681,7.73761 0.2976,0 0.7936,0 1.0912,0 4.96,0 8.92801,-3.96801 8.92801,-8.92801 0,0 0,-0.2976 0,-0.5952 0,-0.3968 -0.0992,-1.0912 -0.1984,-1.488 -0.8928,-4.26561 -4.76161,-13.39202 -21.62563,-13.39202 -21.62562,0 -24.10562,17.95522 -24.10562,24.40323 0,11.80481 1.488,26.58563 26.28803,26.58563 9.82081,0 17.45921,-5.75361 17.85601,-16.36802 0,-0.496 -0.2976,-0.7936 -0.7936,-0.7936 h -1.2896 c -0.3968,0 -0.7936,0.3968 -0.7936,0.7936 -0.3968,8.23361 -6.2496,13.19361 -14.97921,13.19361 -8.63041,0 -12.79682,-4.6624 -12.79682,-13.39201 v -18.94722 c 0,-5.55521 2.18241,-11.90401 11.01121,-11.90401 4.66241,0 6.74561,1.6864 7.83681,3.3728 0.0992,0.1984 0.0992,0.2976 0.0992,0.496 0,0.0992 0,0.2976 -0.1984,0.3968" style="stroke-width:0.992001"/>
	<path class="Expression" d="m 1376.83,73.8487 -9.1,0.75 -0.15,1.8 h 1.2 c 2,0 2.8,0.45 2.8,1.6 0,0.45 -0.15,1.2 -0.4,2.15 l -5.1,17.2 h 4.35 l 2.05,-7.05 c 2.25,-7.65 6.8,-13.45 10.55,-13.45 1.3,0 2.1,0.7 2.1,1.95 0,1 -0.4,3.1 -1,5 l -4,13.55 h 4.35 l 2.15,-7.25 c 1.25,-4.15 2.5,-6.95 4.1,-9.1 1.8,-2.5 4.35,-4.15 6.25,-4.15 1.25,0 1.95,0.65 1.95,1.85 0,0.7 -0.25,1.8 -0.7,3.2 l -2.3,7.1 c -1.35,3.9 -1.4,4.2 -1.4,5.6 0,2.1 1.55,3.5 3.9,3.5 1.65,0 3.25,-0.8 4.95,-2.4 1.05,-1 1.75,-1.9 3.8,-4.9 l -1.55,-1.05 c -2.6,3.9 -4.45,5.8 -5.75,5.8 -0.55,0 -1.05,-0.55 -1.05,-1.25 0,-0.45 0.15,-1 0.6,-2.45 l 3.15,-9.7 c 0.35,-1.1 0.6,-2.65 0.6,-3.75 0,-2.65 -1.95,-4.55 -4.65,-4.55 -3.55,0 -6.75,2.3 -9.65,7.05 0.2,-0.95 0.3,-1.8 0.3,-2.4 0,-2.65 -2.1,-4.65 -4.85,-4.65 -3.15,0 -5.45,1.75 -8.95,6.75 l 1.45,-6.75 m 46.59,0 c -3.3,0 -6.45,1.5 -9.2,4.3 -2.8,2.85 -4.2,6.4 -4.2,10.6 0,5.75 3.45,9.35 8.9,9.35 3.65,0 6.65,-1.35 9.1,-4.1 2.7,-3 4.25,-6.95 4.25,-10.7 0,-5.2 -4,-9.45 -8.85,-9.45 m -0.25,1.9 c 2.75,0 4.35,2.3 4.35,6.15 0,2.6 -1,6.6 -2.35,9.35 -1.7,3.45 -3.55,4.95 -6.2,4.95 -2.9,0 -4.45,-1.85 -4.45,-5.25 0,-4.7 2.4,-15.2 8.65,-15.2 m 26.3,-15.25 -9.95,0.75 -0.2,1.8 h 1.55 c 2.05,0 2.85,0.45 2.85,1.55 0,0.5 -0.15,1.15 -0.45,2.2 l -6.35,21.45 c -1.2,4.1 -1.35,4.75 -1.35,6.35 0,2.15 1.25,3.5 3.25,3.5 3.15,0 6.35,-2.65 9.35,-7.75 l -1.55,-0.85 c -2.6,3.95 -4.75,6.05 -6.15,6.05 -0.55,0 -0.9,-0.4 -0.9,-1.05 0,-0.6 0,-0.65 0.65,-2.75 l 9.25,-31.25 m 15.39,5.8 h -4.35 l -2.45,8.3 h -4.7 l -0.7,2.35 h 4.7 l -3.75,12.6 c -0.75,2.55 -0.95,3.6 -0.95,4.75 0,2.15 1.55,3.8 3.6,3.8 2.35,0 5.15,-1.55 6.9,-3.9 0.7,-0.95 1.2,-1.75 2.5,-3.85 l -1.5,-1 c -3.15,4.75 -4.55,6.1 -6.2,6.1 -0.7,0 -1.15,-0.55 -1.15,-1.4 0,-0.4 0.05,-0.75 0.15,-1.15 l 4.75,-15.95 h 5.45 l 0.7,-2.35 h -5.45 l 2.45,-8.3 m 17.29,7.55 c -3.3,0 -6.45,1.5 -9.2,4.3 -2.8,2.85 -4.2,6.4 -4.2,10.6 0,5.75 3.45,9.35 8.9,9.35 3.65,0 6.65,-1.35 9.1,-4.1 2.7,-3 4.25,-6.95 4.25,-10.7 0,-5.2 -4,-9.45 -8.85,-9.45 m -0.25,1.9 c 2.75,0 4.35,2.3 4.35,6.15 0,2.6 -1,6.6 -2.35,9.35 -1.7,3.45 -3.55,4.95 -6.2,4.95 -2.9,0 -4.45,-1.85 -4.45,-5.25 0,-4.7 2.4,-15.2 8.65,-15.2 m 42.54,15 c -2.5,3.25 -5.15,4.95 -7.55,4.95 -2.95,0 -4.65,-2.15 -4.65,-5.95 0,-4.75 2.85,-14 8.85,-14 1.6,0 3.2,0.8 3.2,1.65 0,0.3 -0.25,0.55 -0.8,0.75 -1.35,0.6 -1.85,1.2 -1.85,2.4 0,1.45 1.1,2.45 2.65,2.45 1.8,0 3.15,-1.6 3.15,-3.75 0,-3 -2.9,-5.4 -6.5,-5.4 -7,0 -13.3,7.2 -13.3,15.25 0,5.45 3.35,9 8.6,9 3.75,0 7,-2.1 9.65,-6.25 l -1.45,-1.1 m 24.53,-16.15 -1.35,4.5 c -0.35,-3.1 -2.85,-5.25 -6.1,-5.25 -7.55,0 -12.3,9.5 -12.3,16.1 0,4.9 2.95,8.15 7.4,8.15 3.15,0 5.1,-1.25 7.6,-4.85 -0.2,0.75 -0.25,1.1 -0.25,1.6 0,1.95 1.25,3.25 3.05,3.25 4,0 6.8,-4.55 8.3,-7.8 l -1.55,-0.85 c -1.9,3.85 -3.65,5.9 -4.95,5.9 -0.6,0 -1.05,-0.55 -1.05,-1.25 0,-0.55 0.2,-1.4 0.55,-2.7 l 5,-16.8 h -4.35 m -6.6,2 c 2.35,0 3.8,1.65 3.8,4.45 0,2.9 -1,6.85 -2.55,10 -1.55,3.1 -3.35,4.5 -5.85,4.5 -2.5,0 -4,-1.85 -4,-4.9 0,-4.5 2.8,-14.05 8.6,-14.05 m 26.94,-2.75 -9.05,0.75 -0.2,1.8 h 1.2 c 2.05,0 2.85,0.45 2.85,1.55 0,0.5 -0.1,1.05 -0.45,2.2 l -5.1,17.2 h 4.35 l 2.05,-6.95 c 1.3,-4.35 1.9,-5.75 3.7,-8.4 2.15,-3.2 4.8,-5.15 6.95,-5.15 1.15,0 2,0.9 2,2.05 0,0.9 -0.2,1.9 -0.75,3.5 l -2.65,7.8 c -0.65,2 -0.9,3.1 -0.9,4.15 0,2.15 1.5,3.75 3.45,3.75 3.2,0 6.5,-2.7 9.2,-7.5 l -1.45,-1.05 c -2.55,4 -4.65,6 -6.25,6 -0.45,0 -0.85,-0.4 -0.85,-0.95 0,-0.55 0.15,-1.15 0.95,-3.35 l 2.35,-6.9 c 0.8,-2.3 1.2,-4.2 1.2,-5.65 0,-2.65 -2.15,-4.85 -4.8,-4.85 -2.95,0 -5.9,2.15 -9.25,6.75 l 1.45,-6.75 m 32.55,-7.55 h -4.35 l -2.45,8.3 h -4.7 l -0.7,2.35 h 4.7 l -3.75,12.6 c -0.75,2.55 -0.95,3.6 -0.95,4.75 0,2.15 1.55,3.8 3.6,3.8 2.35,0 5.15,-1.55 6.9,-3.9 0.7,-0.95 1.2,-1.75 2.5,-3.85 l -1.5,-1 c -3.15,4.75 -4.55,6.1 -6.2,6.1 -0.7,0 -1.15,-0.55 -1.15,-1.4 0,-0.4 0.05,-0.75 0.15,-1.15 l 4.75,-15.95 h 5.45 l 0.7,-2.35 h -5.45 l 2.45,-8.3 m 23.58,8.3 -1.35,4.5 c -0.35,-3.1 -2.85,-5.25 -6.1,-5.25 -7.55,0 -12.3,9.5 -12.3,16.1 0,4.9 2.95,8.15 7.4,8.15 3.15,0 5.1,-1.25 7.6,-4.85 -0.2,0.75 -0.25,1.1 -0.25,1.6 0,1.95 1.25,3.25 3.05,3.25 4,0 6.8,-4.55 8.3,-7.8 l -1.55,-0.85 c -1.9,3.85 -3.65,5.9 -4.95,5.9 -0.6,0 -1.05,-0.55 -1.05,-1.25 0,-0.55 0.2,-1.4 0.55,-2.7 l 5,-16.8 h -4.35 m -6.6,2 c 2.35,0 3.8,1.65 3.8,4.45 0,2.9 -1,6.85 -2.55,10 -1.55,3.1 -3.35,4.5 -5.85,4.5 -2.5,0 -4,-1.85 -4,-4.9 0,-4.5 2.8,-14.05 8.6,-14.05 m 29.99,-16.1 -9.6,0.75 -0.2,1.8 h 1.2 c 2.05,0 2.85,0.45 2.85,1.6 0,0.45 -0.1,1 -0.45,2.15 l -6,20.2 c -0.45,1.6 -0.7,2.9 -0.7,3.95 0,4.35 3.2,7.15 8.15,7.15 3.9,0 6.85,-1.2 9.6,-3.85 3.25,-3.15 5.05,-7.35 5.05,-11.9 0,-5.15 -2.9,-8.5 -7.35,-8.5 -2.9,0 -5.05,1.2 -7.85,4.55 l 5.3,-17.9 m 0.9,16.4 c 2.55,0 4.05,1.95 4.05,5.2 0,5.05 -3.15,14.1 -9.3,14.1 -2.7,0 -4.3,-1.8 -4.3,-4.85 0,-5 3.45,-14.45 9.55,-14.45 m 23.05,-15.25 c -1.5,0 -2.7,1.2 -2.7,2.7 0,1.45 1.2,2.7 2.65,2.7 1.55,0 2.75,-1.2 2.75,-2.7 0,-1.5 -1.2,-2.7 -2.7,-2.7 m 0.9,12.2 -9.6,0.75 -0.2,1.8 h 1.2 c 2.05,0 2.85,0.45 2.85,1.55 0,0.5 -0.1,1.05 -0.45,2.2 l -2.9,9.75 c -0.95,3.2 -1.1,3.9 -1.1,5.05 0,1.75 1.5,3.1 3.4,3.1 4.3,0 7.25,-4.45 9.35,-7.7 l -1.55,-0.85 c -2.6,3.95 -4.7,6.05 -6.05,6.05 -0.5,0 -0.85,-0.45 -0.85,-1.05 0,-0.5 0.2,-1.4 0.6,-2.8 l 5.3,-17.85 m 19.79,-13.35 -9.95,0.75 -0.2,1.8 h 1.55 c 2.05,0 2.85,0.45 2.85,1.55 0,0.5 -0.15,1.15 -0.45,2.2 l -6.35,21.45 c -1.2,4.1 -1.35,4.75 -1.35,6.35 0,2.15 1.25,3.5 3.25,3.5 3.15,0 6.35,-2.65 9.35,-7.75 l -1.55,-0.85 c -2.6,3.95 -4.75,6.05 -6.15,6.05 -0.55,0 -0.9,-0.4 -0.9,-1.05 0,-0.6 0,-0.65 0.65,-2.75 l 9.25,-31.25 m 18.89,31.05 c -2.95,3.05 -5.1,4.2 -7.75,4.2 -3,0 -4.85,-2 -4.85,-5.2 0,-0.35 0.05,-1.05 0.1,-1.7 5.9,-1.4 6.8,-1.7 9.1,-2.7 3.9,-1.7 6,-4.25 6,-7.15 0,-3.05 -2.4,-5.15 -5.95,-5.15 -7.3,0 -13.9,7.4 -13.9,15.6 0,5.4 3.25,8.65 8.65,8.65 3.85,0 7.1,-1.7 9.8,-5.2 l -1.2,-1.35 m -12.25,-4.65 c 1.15,-6.75 4.2,-11.05 7.9,-11.05 1.65,0 2.75,1.15 2.75,2.85 0,2.4 -1.55,4.55 -4.3,6.05 -1.8,1.05 -3.05,1.45 -6.35,2.15"/>
	<path class="Expression" d="m 522.76,113.65 -1.35,4.5 c -0.35,-3.1 -2.85,-5.25 -6.1,-5.25 -7.55,0 -12.3,9.5 -12.3,16.1 0,4.9 2.95,8.15 7.4,8.15 3.15,0 5.1,-1.25 7.6,-4.85 -0.2,0.75 -0.25,1.1 -0.25,1.6 0,1.95 1.25,3.25 3.05,3.25 4,0 6.8,-4.55 8.3,-7.8 l -1.55,-0.85 c -1.9,3.85 -3.65,5.9 -4.95,5.9 -0.6,0 -1.05,-0.55 -1.05,-1.25 0,-0.55 0.2,-1.4 0.55,-2.7 l 5,-16.8 h -4.35 m -6.6,2 c 2.35,0 3.8,1.65 3.8,4.45 0,2.9 -1,6.85 -2.55,10 -1.55,3.1 -3.35,4.5 -5.85,4.5 -2.5,0 -4,-1.85 -4,-4.9 0,-4.5 2.8,-14.05 8.6,-14.05 m 30.187,-16.0998 -9.95,0.7498 -0.2,1.8 h 1.55 c 2.05,0 2.85,0.45 2.85,1.55 0,0.5 -0.15,1.15 -0.45,2.2 l -6.35,21.45 c -1.2,4.1 -1.35,4.75 -1.35,6.35 0,2.15 1.25,3.5 3.25,3.5 3.15,0 6.35,-2.65 9.35,-7.75 l -1.55,-0.85 c -2.6,3.95 -4.75,6.05 -6.15,6.05 -0.55,0 -0.9,-0.4 -0.9,-1.05 0,-0.6 0,-0.65 0.65,-2.75 l 9.25,-31.2498 m 16.641,0 -9.95,0.7498 -0.2,1.8 h 1.55 c 2.05,0 2.85,0.45 2.85,1.55 0,0.5 -0.15,1.15 -0.45,2.2 l -6.35,21.45 c -1.2,4.1 -1.35,4.75 -1.35,6.35 0,2.15 1.25,3.5 3.25,3.5 3.15,0 6.35,-2.65 9.35,-7.75 l -1.55,-0.85 c -2.6,3.95 -4.75,6.05 -6.15,6.05 -0.55,0 -0.9,-0.4 -0.9,-1.05 0,-0.6 0,-0.65 0.65,-2.75 l 9.25,-31.2498 m 21.741,14.0998 -1.35,4.5 c -0.35,-3.1 -2.85,-5.25 -6.1,-5.25 -7.55,0 -12.3,9.5 -12.3,16.1 0,4.9 2.95,8.15 7.4,8.15 3.15,0 5.1,-1.25 7.6,-4.85 -0.2,0.75 -0.25,1.1 -0.25,1.6 0,1.95 1.25,3.25 3.05,3.25 4,0 6.8,-4.55 8.3,-7.8 l -1.55,-0.85 c -1.9,3.85 -3.65,5.9 -4.95,5.9 -0.6,0 -1.05,-0.55 -1.05,-1.25 0,-0.55 0.2,-1.4 0.55,-2.7 l 5,-16.8 h -4.35 m -6.6,2 c 2.35,0 3.8,1.65 3.8,4.45 0,2.9 -1,6.85 -2.55,10 -1.55,3.1 -3.35,4.5 -5.85,4.5 -2.5,0 -4,-1.85 -4,-4.9 0,-4.5 2.8,-14.05 8.6,-14.05 m 40.878,-2.75 -9.1,0.75 -0.15,1.8 h 1.2 c 2,0 2.8,0.45 2.8,1.6 0,0.45 -0.15,1.2 -0.4,2.15 l -5.1,17.2 h 4.35 l 2.05,-7.05 c 2.25,-7.65 6.8,-13.45 10.55,-13.45 1.3,0 2.1,0.7 2.1,1.95 0,1 -0.4,3.1 -1,5 l -4,13.55 h 4.35 l 2.15,-7.25 c 1.25,-4.15 2.5,-6.95 4.1,-9.1 1.8,-2.5 4.35,-4.15 6.25,-4.15 1.25,0 1.95,0.65 1.95,1.85 0,0.7 -0.25,1.8 -0.7,3.2 l -2.3,7.1 c -1.35,3.9 -1.4,4.2 -1.4,5.6 0,2.1 1.55,3.5 3.9,3.5 1.65,0 3.25,-0.8 4.95,-2.4 1.05,-1 1.75,-1.9 3.8,-4.9 l -1.55,-1.05 c -2.6,3.9 -4.45,5.8 -5.75,5.8 -0.55,0 -1.05,-0.55 -1.05,-1.25 0,-0.45 0.15,-1 0.6,-2.45 l 3.15,-9.7 c 0.35,-1.1 0.6,-2.65 0.6,-3.75 0,-2.65 -1.95,-4.55 -4.65,-4.55 -3.55,0 -6.75,2.3 -9.65,7.05 0.2,-0.95 0.3,-1.8 0.3,-2.4 0,-2.65 -2.1,-4.65 -4.85,-4.65 -3.15,0 -5.45,1.75 -8.95,6.75 l 1.45,-6.75 m 52.737,0.75 -1.35,4.5 c -0.35,-3.1 -2.85,-5.25 -6.1,-5.25 -7.55,0 -12.3,9.5 -12.3,16.1 0,4.9 2.95,8.15 7.4,8.15 3.15,0 5.1,-1.25 7.6,-4.85 -0.2,0.75 -0.25,1.1 -0.25,1.6 0,1.95 1.25,3.25 3.05,3.25 4,0 6.8,-4.55 8.3,-7.8 l -1.55,-0.85 c -1.9,3.85 -3.65,5.9 -4.95,5.9 -0.6,0 -1.05,-0.55 -1.05,-1.25 0,-0.55 0.2,-1.4 0.55,-2.7 l 5,-16.8 h -4.35 m -6.6,2 c 2.35,0 3.8,1.65 3.8,4.45 0,2.9 -1,6.85 -2.55,10 -1.55,3.1 -3.35,4.5 -5.85,4.5 -2.5,0 -4,-1.85 -4,-4.9 0,-4.5 2.8,-14.05 8.6,-14.05 m 26.688,-2.75 -9.05,0.75 -0.2,1.8 h 1.2 c 2,0 2.9,0.45 2.9,1.4 0,0.35 -0.2,1.4 -0.5,2.35 l -5.1,17.2 h 4.35 l 2.35,-7.9 c 1.85,-6.25 6,-12.55 8.3,-12.55 0.7,0 0.9,0.35 0.9,1.7 0,1.35 0.85,2.15 2.35,2.15 1.7,0 2.95,-1.35 2.95,-3.2 0,-2.15 -1.65,-3.7 -3.95,-3.7 -2.8,0 -5,1.65 -7.65,5.8 l 1.15,-5.8 m 27.287,16.9 c -2.5,3.25 -5.15,4.95 -7.55,4.95 -2.95,0 -4.65,-2.15 -4.65,-5.95 0,-4.75 2.85,-14 8.85,-14 1.6,0 3.2,0.8 3.2,1.65 0,0.3 -0.25,0.55 -0.8,0.75 -1.35,0.6 -1.85,1.2 -1.85,2.4 0,1.45 1.1,2.45 2.65,2.45 1.8,0 3.15,-1.6 3.15,-3.75 0,-3 -2.9,-5.4 -6.5,-5.4 -7,0 -13.3,7.2 -13.3,15.25 0,5.45 3.35,9 8.6,9 3.75,0 7,-2.1 9.65,-6.25 l -1.45,-1.1 m 15.788,-29.1 c -1.5,0 -2.7,1.2 -2.7,2.7 0,1.45 1.2,2.7 2.65,2.7 1.55,0 2.75,-1.2 2.75,-2.7 0,-1.5 -1.2,-2.7 -2.7,-2.7 m 0.9,12.2 -9.6,0.75 -0.2,1.8 h 1.2 c 2.05,0 2.85,0.45 2.85,1.55 0,0.5 -0.1,1.05 -0.45,2.2 l -2.9,9.75 c -0.95,3.2 -1.1,3.9 -1.1,5.05 0,1.75 1.5,3.1 3.4,3.1 4.3,0 7.25,-4.45 9.35,-7.7 l -1.55,-0.85 c -2.6,3.95 -4.7,6.05 -6.05,6.05 -0.5,0 -0.85,-0.45 -0.85,-1.05 0,-0.5 0.2,-1.4 0.6,-2.8 l 5.3,-17.85 m 24.89,0.75 -1.35,4.5 c -0.35,-3.1 -2.85,-5.25 -6.1,-5.25 -7.55,0 -12.3,9.5 -12.3,16.1 0,4.9 2.95,8.15 7.4,8.15 3.15,0 5.1,-1.25 7.6,-4.85 -0.2,0.75 -0.25,1.1 -0.25,1.6 0,1.95 1.25,3.25 3.05,3.25 4,0 6.8,-4.55 8.3,-7.8 l -1.55,-0.85 c -1.9,3.85 -3.65,5.9 -4.95,5.9 -0.6,0 -1.05,-0.55 -1.05,-1.25 0,-0.55 0.2,-1.4 0.55,-2.7 l 5,-16.8 h -4.35 m -6.6,2 c 2.35,0 3.8,1.65 3.8,4.45 0,2.9 -1,6.85 -2.55,10 -1.55,3.1 -3.35,4.5 -5.85,4.5 -2.5,0 -4,-1.85 -4,-4.9 0,-4.5 2.8,-14.05 8.6,-14.05"/>
	<path class="Beam" d="m 985.582,260.378 73.128,6.2 v 12.445 l -73.128,-6.2 v -12.445" fill-rule="evenodd"/>
	<path class="Beam" d="m 1058.71,247.978 -27.28,-2.313 v 12.445 l 27.28,2.313 v -12.445" fill-rule="evenodd"/>
	<path class="Beam" d="m 647.383,291.378 73.129,-6.2 v 12.445 l -73.129,6.2 v -12.445" fill-rule="evenodd"/>
	<path class="Beam" d="m 720.512,266.578 -27.28,2.313 v 12.444 l 27.28,-2.312 v -12.445" fill-rule="evenodd"/>
	<path class="Beam" d="m 870.309,260.4 h 73.129 v 12.4 h -73.129 v -12.4" fill-rule="evenodd"/>
	<path class="Beam" d="m 943.438,241.8 h -27.28 v 12.4 h 27.28 v -12.4" fill-rule="evenodd"/>
	<path class="Beam" d="m 1100.86,285.178 73.12,-6.2 v 12.445 l -73.12,6.2 v -12.445" fill-rule="evenodd"/>
	<path class="Beam" d="m 1173.98,260.378 -27.28,2.313 v 12.444 l 27.28,-2.312 v -12.445" fill-rule="evenodd"/>
	<path class="NoteDot" d="m 1662.73,136.4 c 0,2.7776 2.1824,4.96 4.96,4.96 2.7776,0 4.96,-2.1824 4.96,-4.96 0,-2.7776 -2.1824,-4.96001 -4.96,-4.96001 -2.7776,0 -4.96,2.18241 -4.96,4.96001" style="stroke-width:0.992001"/>
	<path class="NoteDot" d="m 692.007,210.8 c 0,2.7776 2.1824,4.96 4.96,4.96 2.77761,0 4.96001,-2.1824 4.96001,-4.96 0,-2.7776 -2.1824,-4.96 -4.96001,-4.96 -2.7776,0 -4.96,2.1824 -4.96,4.96" style="stroke-width:0.992001"/>
	<path class="NoteDot" d="m 914.933,186 c 0,2.7776 2.1824,4.96 4.96001,4.96 2.7776,0 4.96,-2.1824 4.96,-4.96 0,-2.7776 -2.1824,-4.96001 -4.96,-4.96001 -2.77761,0 -4.96001,2.18241 -4.96001,4.96001" style="stroke-width:0.992001"/>
	<path class="NoteDot" d="m 1145.48,210.8 c 0,2.7776 2.1824,4.96 4.96,4.96 2.7776,0 4.96,-2.1824 4.96,-4.96 0,-2.7776 -2.1824,-4.96 -4.96,-4.96 -2.7776,0 -4.96,2.1824 -4.96,4.96" style="stroke-width:0.992001"/>
	<path class="NoteDot" d="m 1030.21,186 c 0,2.7776 2.1824,4.96 4.96,4.96 2.7776,0 4.96,-2.1824 4.96,-4.96 0,-2.7776 -2.1824,-4.96001 -4.96,-4.96001 -2.7776,0 -4.96,2.18241 -4.96,4.96001" style="stroke-width:0.992001"/>
</svg>
